<svg width="1084" height="200" viewBox="0 0 1084 200" fill="none" xmlns="http://www.w3.org/2000/svg">
<path d="M973.425 96.5213C973.803 95.2318 974.181 94.0497 974.505 92.8676C976.072 86.7959 977.585 80.7243 979.638 74.7601C983.367 63.9601 987.689 53.3751 992.12 42.8437C997.037 31.184 1001.85 19.5243 1006.71 7.86461C1007.46 5.98401 1008.38 4.21088 1009.3 2.38401C1009.63 1.68551 1010.11 1.04073 1010.65 0.503417C1011.57 -0.410016 1012.76 -0.0338965 1012.87 1.25566C1012.98 2.33028 1012.98 3.40491 1012.76 4.47954C1011.95 9.0467 1011.14 13.6139 1010.17 18.1273C1007.57 30.4318 1004.93 42.7363 1002.87 55.1482C1001.68 62.4557 1000.66 69.7631 999.63 77.0706C998.711 83.5183 997.955 89.9124 997.145 96.3601C997.037 97.3273 996.982 98.2945 996.874 99.5303C997.415 99.2079 997.685 99.0467 997.955 98.8318C999.036 97.8646 1000.17 96.8974 1001.14 95.8228C1011.62 84.9691 1023.46 75.6736 1035.94 67.184C1036.7 66.7004 1037.45 66.2168 1038.26 65.787C1038.69 65.5721 1039.18 65.4646 1039.61 65.4109C1040.48 65.3571 1041.13 65.9482 1041.13 66.8079C1041.13 67.4527 1041.02 68.2049 1040.69 68.7959C1039.94 70.3542 1039.18 71.9124 1038.21 73.3094C1034.97 77.8228 1031.72 82.3362 1028.37 86.7422C1023.35 93.3512 1018.22 99.9064 1013.14 106.515C1012.17 107.751 1011.3 109.094 1010.49 110.491C1009.3 112.48 1009.52 113.447 1011.52 114.683C1013.03 115.596 1014.6 116.402 1016.22 117.1C1022.05 119.572 1028.1 121.506 1034.16 123.333C1049.55 128.062 1064.79 133.274 1079.7 139.345C1080.62 139.721 1081.6 140.044 1082.51 140.42C1082.89 140.581 1083.22 140.742 1083.54 141.011C1084.24 141.656 1084.03 142.784 1083.11 143.106C1082.78 143.214 1082.41 143.268 1082.08 143.268C1078.46 143.321 1074.84 143.429 1071.22 143.321C1062.04 142.945 1052.85 141.978 1043.72 140.85C1030.32 139.238 1017.03 137.035 1003.84 134.294C1002.06 133.918 1000.28 133.65 998.495 133.327C998.117 133.274 997.739 133.22 997.307 133.274C995.902 133.274 995.307 133.596 994.929 134.993C994.443 136.874 994.011 138.754 993.687 140.635C992.228 148.748 991.039 156.915 990.12 165.136C989.526 170.456 989.094 175.829 988.446 181.148C987.959 185.339 987.257 189.477 986.662 193.668C986.5 194.581 986.176 195.494 985.852 196.354C985.528 197.268 984.933 198.074 983.799 198.074C982.772 198.02 982.178 197.268 981.908 196.354C981.421 194.903 980.935 193.399 980.719 191.894C980.179 188.294 979.638 184.641 979.422 181.041C978.882 172.229 978.45 163.471 978.18 154.659C978.017 149.339 978.18 144.02 978.234 138.7C978.234 138.217 978.234 137.68 978.234 136.981C977.423 137.088 976.721 137.088 976.018 137.196C968.238 138.485 960.619 140.259 952.947 142.086C939.871 145.094 926.796 148.372 913.558 151.005C907.939 152.133 902.266 153.1 896.592 154.121C895.62 154.283 894.593 154.336 893.62 154.444C893.35 154.444 893.08 154.497 892.864 154.444C891.729 154.39 891.135 154.068 891.027 153.369C890.865 152.456 891.459 152.026 892.108 151.65C893.566 150.844 894.971 150.091 896.43 149.339C910.208 142.086 924.31 135.477 938.304 128.706C944.842 125.536 951.272 122.044 957.702 118.659C958.512 118.229 959.215 117.745 960.187 117.154C959.701 116.509 959.323 115.865 958.836 115.381C956.135 112.48 953.541 109.471 950.624 106.784C944.788 101.411 938.845 96.1989 932.847 90.987C925.553 84.6467 918.367 78.1989 911.775 71.1601C910.316 69.6019 908.911 67.9363 907.561 66.2706C907.182 65.8407 906.858 65.3034 906.534 64.7661C906.102 64.0139 906.156 63.3154 906.642 62.8318C907.074 62.3482 907.777 62.2945 908.533 62.6706C908.803 62.778 909.073 62.993 909.344 63.1004C912.964 65.1422 916.476 67.2915 920.15 69.2258C931.064 74.9213 942.033 80.6168 952.731 86.7959C957.864 89.7512 963.213 92.2228 968.832 94.2109C969.697 94.5333 970.453 94.9631 971.264 95.393C971.966 95.7153 972.614 96.0915 973.425 96.5213Z" fill="#AAE4C6"/>
<path d="M50.04 199.28C36.1307 199.28 24.44 194.501 14.968 184.944C5.49601 175.301 0.76001 163.653 0.76001 150C0.76001 136.261 5.49601 124.613 14.968 115.056C24.44 105.499 36.1307 100.72 50.04 100.72C62.9253 100.72 74.0187 104.944 83.32 113.392V136.944C77.432 131.568 71.928 127.6 66.808 125.04C61.688 122.48 56.0987 121.2 50.04 121.2C42.104 121.2 35.2773 123.973 29.56 129.52C24.0133 135.067 21.24 141.893 21.24 150C21.24 158.107 24.0133 164.933 29.56 170.48C35.2773 176.027 42.104 178.8 50.04 178.8C56.0987 178.8 61.688 177.52 66.808 174.96C71.928 172.4 77.432 168.432 83.32 163.056V186.608C74.0187 195.056 62.9253 199.28 50.04 199.28Z" fill="#54B6C8"/>
<path d="M139.685 134H160.165V198H142.245V178.8C136.954 184.603 127.781 199.28 119.845 199.28C112.677 199.28 107.045 196.549 102.949 191.088C98.853 185.541 96.805 179.141 96.805 171.888V134H117.285V169.072C117.285 172.4 118.138 175.003 119.845 176.88C121.637 178.672 124.069 179.568 127.141 179.568C130.725 179.568 133.712 178.245 136.101 175.6C138.49 172.955 139.685 169.499 139.685 165.232V134Z" fill="#54B6C8"/>
<path d="M216.899 158.576C216.046 156.443 214.68 154.779 212.803 153.584C210.926 152.304 208.878 151.664 206.659 151.664C203.758 151.664 201.24 152.859 199.107 155.248C197.059 157.637 196.035 161.264 196.035 166.128V198H175.555V134H196.035V151.664C199.704 145.435 204.312 133.616 209.859 133.616C212.163 133.616 214.467 134.171 216.771 135.28L216.899 158.576Z" fill="#54B6C8"/>
<path d="M271.024 158.576C270.171 156.443 268.805 154.779 266.928 153.584C265.051 152.304 263.003 151.664 260.784 151.664C257.883 151.664 255.365 152.859 253.232 155.248C251.184 157.637 250.16 161.264 250.16 166.128V198H229.68V134H250.16V151.664C253.829 145.435 258.437 133.616 263.984 133.616C266.288 133.616 268.592 134.171 270.896 135.28L271.024 158.576Z" fill="#54B6C8"/>
<path d="M283.945 121L294 104.5H315.5L299.5 121H283.945ZM283.945 198V134H304.425V198H283.945Z" fill="#54B6C8"/>
<path d="M350.302 199.28C340.745 199.28 332.723 196.037 326.238 189.552C319.753 183.067 316.51 175.216 316.51 166C316.51 156.784 319.753 148.933 326.238 142.448C332.723 135.963 340.745 132.72 350.302 132.72C356.702 132.72 362.761 134.469 368.478 137.968V159.728C364.553 155.376 359.561 153.2 353.502 153.2C348.894 153.2 345.054 154.437 341.982 156.912C338.995 159.387 337.459 162.416 337.374 166C337.459 169.584 338.995 172.613 341.982 175.088C345.054 177.563 348.894 178.8 353.502 178.8C359.561 178.8 364.553 176.581 368.478 172.144V194.032C362.761 197.531 356.702 199.28 350.302 199.28Z" fill="#54B6C8"/>
<path d="M424.81 134H445.29V198H427.37V179.568C422.079 185.371 412.906 199.28 404.97 199.28C397.802 199.28 392.17 196.549 388.074 191.088C383.978 185.541 381.93 179.141 381.93 171.888V134H402.41V169.072C402.41 172.4 403.263 175.003 404.97 176.88C406.762 178.672 409.194 179.568 412.266 179.568C415.85 179.568 418.837 178.245 421.226 175.6C423.615 172.955 424.81 169.499 424.81 165.232V134Z" fill="#54B6C8"/>
<path d="M460.68 198V102H481.16V198H460.68Z" fill="#54B6C8"/>
<path d="M527.165 199.28C517.864 199.28 509.97 196.037 503.485 189.552C497.085 182.981 493.885 175.131 493.885 166C493.885 156.784 497.085 148.933 503.485 142.448C509.97 135.963 517.864 132.72 527.165 132.72C536.552 132.72 544.445 135.963 550.845 142.448C557.245 148.848 560.445 156.699 560.445 166C560.445 175.216 557.245 183.067 550.845 189.552C544.445 196.037 536.552 199.28 527.165 199.28ZM518.077 175.088C520.722 177.563 523.752 178.8 527.165 178.8C530.749 178.8 533.778 177.563 536.253 175.088C538.728 172.613 539.965 169.584 539.965 166C539.965 162.416 538.728 159.429 536.253 157.04C533.864 154.48 530.834 153.2 527.165 153.2C523.666 153.2 520.637 154.48 518.077 157.04C516.882 158.235 515.944 159.643 515.261 161.264C514.664 162.8 514.365 164.379 514.365 166C514.365 169.413 515.602 172.443 518.077 175.088Z" fill="#54B6C8"/>
<path d="M689.326 102H714.03V198H693.55V146.928L671.662 198H650.798L628.91 146.928V198H608.43V102H633.134L661.294 172.272L689.326 102Z" fill="#54B6C8"/>
<path d="M756.212 132.72C765.087 132.72 772.724 135.28 779.124 140.4C785.524 145.52 788.724 151.579 788.724 158.576V198H768.244V182.128C767.049 185.115 765.001 195.44 762.1 196.976C759.199 198.512 756.084 199.28 752.756 199.28C745.247 199.28 738.975 197.061 733.94 192.624C728.82 188.101 726.26 182.64 726.26 176.24C726.26 169.925 728.777 164.848 733.812 161.008C738.761 157.083 745.076 155.12 752.756 155.12C758.9 155.12 764.063 156.699 768.244 159.856V158.576C768.244 155.589 766.836 153.285 764.02 151.664C761.289 149.957 757.577 149.104 752.884 149.104C745.887 149.104 740.255 150.939 735.988 154.608V137.584C741.449 134.341 748.191 132.72 756.212 132.72ZM757.62 182.896C760.692 182.896 763.209 182.171 765.172 180.72C767.22 179.269 768.244 177.435 768.244 175.216C768.244 173.083 767.22 171.291 765.172 169.84C763.124 168.304 760.607 167.536 757.62 167.536C754.633 167.536 752.116 168.304 750.068 169.84C748.02 171.291 746.996 173.083 746.996 175.216C746.996 177.435 747.977 179.269 749.94 180.72C751.988 182.171 754.548 182.896 757.62 182.896Z" fill="#54B6C8"/>
<path d="M844.149 159.984C853.792 168.091 860.149 179.739 863.221 194.928L842.997 199.152C838.901 182.512 832.33 173.381 823.285 171.76V198H802.805V102H823.285V150C826.784 148.72 829.984 146.459 832.885 143.216C835.786 139.973 837.792 136.517 838.901 132.848L859.765 136.304C857.376 145.264 852.17 153.157 844.149 159.984Z" fill="#54B6C8"/>
<path d="M925.551 155.376C925.551 161.605 922.991 166.597 917.871 170.352C912.666 174.107 906.01 175.984 897.903 175.984C893.466 175.984 889.199 175.173 885.103 173.552C887.919 179.269 893.124 182.128 900.719 182.128C908.655 182.128 915.098 179.525 920.047 174.32V194.16C914.842 197.573 908.228 199.28 900.207 199.28C890.479 199.28 882.202 196.08 875.375 189.68C868.719 183.365 865.306 175.472 865.135 166C865.306 156.784 868.719 148.933 875.375 142.448C882.116 135.963 890.394 132.72 900.207 132.72C907.802 132.72 913.903 134.896 918.511 139.248C923.204 143.6 925.551 148.976 925.551 155.376ZM899.439 149.744C896.538 149.744 893.807 150.469 891.247 151.92C888.687 153.371 886.767 155.376 885.487 157.936C888.986 159.899 893.124 160.88 897.903 160.88C904.559 160.88 907.887 159.259 907.887 156.016C907.887 154.139 907.162 152.645 905.711 151.536C904.26 150.341 902.17 149.744 899.439 149.744Z" fill="#54B6C8"/>
<path d="M979.024 158.576C978.171 156.443 976.805 154.779 974.928 153.584C973.051 152.304 971.003 151.664 968.784 151.664C965.883 151.664 963.365 152.859 961.232 155.248C959.184 157.637 958.16 161.264 958.16 166.128V198H937.68V134H958.16V151.536C961.829 145.307 966.437 133.616 971.984 133.616C974.288 133.616 976.592 134.171 978.896 135.28L979.024 158.576Z" fill="#54B6C8"/>
</svg>
