<svg width="980" height="100" viewBox="0 0 980 100" fill="none" xmlns="http://www.w3.org/2000/svg">
<path d="M50.04 99.28C36.1307 99.28 24.44 94.5013 14.968 84.944C5.49601 75.3013 0.76001 63.6533 0.76001 50C0.76001 36.2613 5.49601 24.6133 14.968 15.056C24.44 5.49866 36.1307 0.719994 50.04 0.719994C62.9253 0.719994 74.0187 4.944 83.32 13.392V36.944C77.432 31.568 71.928 27.6 66.808 25.04C61.688 22.48 56.0987 21.2 50.04 21.2C42.104 21.2 35.2773 23.9733 29.56 29.52C24.0133 35.0667 21.24 41.8933 21.24 50C21.24 58.1067 24.0133 64.9333 29.56 70.48C35.2773 76.0267 42.104 78.8 50.04 78.8C56.0987 78.8 61.688 77.52 66.808 74.96C71.928 72.4 77.432 68.432 83.32 63.056V86.608C74.0187 95.056 62.9253 99.28 50.04 99.28Z" fill="#54B6C8"/>
<path d="M139.685 34H160.165V98H142.245V78.8C136.954 84.6027 127.781 99.28 119.845 99.28C112.677 99.28 107.045 96.5493 102.949 91.088C98.853 85.5413 96.805 79.1413 96.805 71.888V34H117.285V69.072C117.285 72.4 118.138 75.0027 119.845 76.88C121.637 78.672 124.069 79.568 127.141 79.568C130.725 79.568 133.712 78.2453 136.101 75.6C138.49 72.9547 139.685 69.4987 139.685 65.232V34Z" fill="#54B6C8"/>
<path d="M216.899 58.576C216.046 56.4427 214.68 54.7787 212.803 53.584C210.926 52.304 208.878 51.664 206.659 51.664C203.758 51.664 201.24 52.8587 199.107 55.248C197.059 57.6373 196.035 61.264 196.035 66.128V98H175.555V34H196.035V51.664C199.704 45.4347 204.312 33.616 209.859 33.616C212.163 33.616 214.467 34.1707 216.771 35.28L216.899 58.576Z" fill="#54B6C8"/>
<path d="M271.024 58.576C270.171 56.4427 268.805 54.7787 266.928 53.584C265.051 52.304 263.003 51.664 260.784 51.664C257.883 51.664 255.365 52.8587 253.232 55.248C251.184 57.6373 250.16 61.264 250.16 66.128V98H229.68V34H250.16V51.664C253.829 45.4347 258.437 33.616 263.984 33.616C266.288 33.616 268.592 34.1707 270.896 35.28L271.024 58.576Z" fill="#54B6C8"/>
<path d="M283.945 21L294 4.5H315.5L299.5 21H283.945ZM283.945 98V34H304.425V98H283.945Z" fill="#54B6C8"/>
<path d="M350.302 99.28C340.745 99.28 332.723 96.0373 326.238 89.552C319.753 83.0667 316.51 75.216 316.51 66C316.51 56.784 319.753 48.9333 326.238 42.448C332.723 35.9627 340.745 32.72 350.302 32.72C356.702 32.72 362.761 34.4693 368.478 37.968V59.728C364.553 55.376 359.561 53.2 353.502 53.2C348.894 53.2 345.054 54.4373 341.982 56.912C338.995 59.3867 337.459 62.416 337.374 66C337.459 69.584 338.995 72.6133 341.982 75.088C345.054 77.5627 348.894 78.8 353.502 78.8C359.561 78.8 364.553 76.5813 368.478 72.144V94.032C362.761 97.5307 356.702 99.28 350.302 99.28Z" fill="#54B6C8"/>
<path d="M424.81 34H445.29V98H427.37V79.568C422.079 85.3707 412.906 99.28 404.97 99.28C397.802 99.28 392.17 96.5493 388.074 91.088C383.978 85.5413 381.93 79.1413 381.93 71.888V34H402.41V69.072C402.41 72.4 403.263 75.0027 404.97 76.88C406.762 78.672 409.194 79.568 412.266 79.568C415.85 79.568 418.837 78.2453 421.226 75.6C423.615 72.9547 424.81 69.4987 424.81 65.232V34Z" fill="#54B6C8"/>
<path d="M460.68 98V1.99999H481.16V98H460.68Z" fill="#54B6C8"/>
<path d="M527.165 99.28C517.864 99.28 509.97 96.0373 503.485 89.552C497.085 82.9813 493.885 75.1307 493.885 66C493.885 56.784 497.085 48.9333 503.485 42.448C509.97 35.9627 517.864 32.72 527.165 32.72C536.552 32.72 544.445 35.9627 550.845 42.448C557.245 48.848 560.445 56.6987 560.445 66C560.445 75.216 557.245 83.0667 550.845 89.552C544.445 96.0373 536.552 99.28 527.165 99.28ZM518.077 75.088C520.722 77.5627 523.752 78.8 527.165 78.8C530.749 78.8 533.778 77.5627 536.253 75.088C538.728 72.6133 539.965 69.584 539.965 66C539.965 62.416 538.728 59.4293 536.253 57.04C533.864 54.48 530.834 53.2 527.165 53.2C523.666 53.2 520.637 54.48 518.077 57.04C516.882 58.2347 515.944 59.6427 515.261 61.264C514.664 62.8 514.365 64.3787 514.365 66C514.365 69.4133 515.602 72.4427 518.077 75.088Z" fill="#54B6C8"/>
<path d="M689.326 1.99999H714.03V98H693.55V46.928L671.662 98H650.798L628.91 46.928V98H608.43V1.99999H633.134L661.294 72.272L689.326 1.99999Z" fill="#54B6C8"/>
<path d="M756.212 32.72C765.087 32.72 772.724 35.28 779.124 40.4C785.524 45.52 788.724 51.5787 788.724 58.576V98H768.244V82.128C767.049 85.1147 765.001 95.44 762.1 96.976C759.199 98.512 756.084 99.28 752.756 99.28C745.247 99.28 738.975 97.0613 733.94 92.624C728.82 88.1013 726.26 82.64 726.26 76.24C726.26 69.9253 728.777 64.848 733.812 61.008C738.761 57.0827 745.076 55.12 752.756 55.12C758.9 55.12 764.063 56.6987 768.244 59.856V58.576C768.244 55.5893 766.836 53.2853 764.02 51.664C761.289 49.9573 757.577 49.104 752.884 49.104C745.887 49.104 740.255 50.9387 735.988 54.608V37.584C741.449 34.3413 748.191 32.72 756.212 32.72ZM757.62 82.896C760.692 82.896 763.209 82.1707 765.172 80.72C767.22 79.2693 768.244 77.4347 768.244 75.216C768.244 73.0827 767.22 71.2907 765.172 69.84C763.124 68.304 760.607 67.536 757.62 67.536C754.633 67.536 752.116 68.304 750.068 69.84C748.02 71.2907 746.996 73.0827 746.996 75.216C746.996 77.4347 747.977 79.2693 749.94 80.72C751.988 82.1707 754.548 82.896 757.62 82.896Z" fill="#54B6C8"/>
<path d="M844.149 59.984C853.792 68.0907 860.149 79.7387 863.221 94.928L842.997 99.152C838.901 82.512 832.33 73.3813 823.285 71.76V98H802.805V1.99999H823.285V50C826.784 48.72 829.984 46.4587 832.885 43.216C835.786 39.9733 837.792 36.5173 838.901 32.848L859.765 36.304C857.376 45.264 852.17 53.1573 844.149 59.984Z" fill="#54B6C8"/>
<path d="M925.551 55.376C925.551 61.6053 922.991 66.5973 917.871 70.352C912.666 74.1067 906.01 75.984 897.903 75.984C893.466 75.984 889.199 75.1733 885.103 73.552C887.919 79.2693 893.124 82.128 900.719 82.128C908.655 82.128 915.098 79.5253 920.047 74.32V94.16C914.842 97.5733 908.228 99.28 900.207 99.28C890.479 99.28 882.202 96.08 875.375 89.68C868.719 83.3653 865.306 75.472 865.135 66C865.306 56.784 868.719 48.9333 875.375 42.448C882.116 35.9627 890.394 32.72 900.207 32.72C907.802 32.72 913.903 34.896 918.511 39.248C923.204 43.6 925.551 48.976 925.551 55.376ZM899.439 49.744C896.538 49.744 893.807 50.4693 891.247 51.92C888.687 53.3707 886.767 55.376 885.487 57.936C888.986 59.8987 893.124 60.88 897.903 60.88C904.559 60.88 907.887 59.2587 907.887 56.016C907.887 54.1387 907.162 52.6453 905.711 51.536C904.26 50.3413 902.17 49.744 899.439 49.744Z" fill="#54B6C8"/>
<path d="M979.024 58.576C978.171 56.4427 976.805 54.7787 974.928 53.584C973.051 52.304 971.003 51.664 968.784 51.664C965.883 51.664 963.365 52.8587 961.232 55.248C959.184 57.6373 958.16 61.264 958.16 66.128V98H937.68V34H958.16V51.536C961.829 45.3067 966.437 33.616 971.984 33.616C974.288 33.616 976.592 34.1707 978.896 35.28L979.024 58.576Z" fill="#54B6C8"/>
</svg>
